<svg width="7" height="9" viewBox="0 0 7 9" fill="none" xmlns="http://www.w3.org/2000/svg">
<path d="M2.25586 1.38964C2.14844 1.67772 1.99414 1.9453 1.79688 2.18554C1.65959 2.35249 1.504 2.5035 1.33301 2.63573C0.921197 2.9523 0.586341 3.35793 0.353516 3.82225L0.501075 3.89542C0.719097 3.4565 1.04175 3.06668 1.43284 2.76646L1.43326 2.76614L1.43359 2.76589C1.43361 2.76587 1.43362 2.76586 1.43363 2.76585C1.61436 2.62766 1.77828 2.46877 1.92205 2.29243L1.92287 2.29142C1.92325 2.29097 1.92362 2.29051 1.92399 2.29006C1.92401 2.29003 1.92404 2.29 1.92406 2.28997C2.1331 2.03463 2.29617 1.75122 2.40925 1.44788C2.40935 1.4476 2.40946 1.44732 2.40956 1.44704L2.25586 1.38964ZM2.25586 1.38964C2.34375 1.15429 2.38086 0.871082 2.36621 0.55077L2.36545 0.534098L2.50203 1.09111C2.48315 1.21251 2.45218 1.33172 2.40959 1.44696L2.25586 1.38964ZM0.500749 3.89608C0.500646 3.89629 0.500543 3.8965 0.50044 3.8967C0.277715 4.34456 0.16421 4.8276 0.164063 5.32909L0.500749 3.89608ZM2.46191 0.0107306C2.40918 -0.0205194 2.3418 0.0204962 2.34473 0.0820196L2.35011 0.199406L2.35016 0.200659L2.36375 0.497127C2.4464 0.509244 2.52804 0.495378 2.59994 0.461627L2.46191 0.0107306Z" stroke="white"/>
</svg>
